Coordinates
version=1
nRows=17
nColumns=34
inDegrees=yes

Units are S.I. units (second, meters, Newtons, ...)
If the header above contains a line with 'inDegrees', this indicates whether rotational values are in degrees (yes) or radians (no).

endheader
time	pelvis_tilt	pelvis_list	pelvis_rotation	pelvis_tx	pelvis_ty	pelvis_tz	hip_flexion_r	hip_adduction_r	hip_rotation_r	knee_angle_r	ankle_angle_r	subtalar_angle_r	mtp_angle_r	hip_flexion_l	hip_adduction_l	hip_rotation_l	knee_angle_l	ankle_angle_l	subtalar_angle_l	mtp_angle_l	lumbar_extension	lumbar_bending	lumbar_rotation	arm_flex_r	arm_add_r	arm_rot_r	elbow_flex_r	pro_sup_r	arm_flex_l	arm_add_l	arm_rot_l	elbow_flex_l	pro_sup_l
      7.21666670	    -31.35982628	      2.77869385	      4.31289274	      0.82777223	      0.95898883	     -0.30046815	     63.87691374	    -15.95460491	     -2.20607628	     36.33508718	     -1.55656636	     -8.39577836	      0.00000000	     64.35310851	     -7.25797010	     -4.77496954	     37.97215518	      3.70400190	      0.36435411	      0.00000000	    -25.22625411	     -1.24577320	     -2.37493583	     75.63996594	    -10.83983377	     22.40740536	     90.92745068	     84.51322654	     77.50123012	     -4.69995505	     26.55971243	     83.75837985	     63.60283170
      7.23333330	    -31.97270445	      2.59662572	      4.31550735	      0.82034723	      0.94975686	     -0.29969168	     66.60277844	    -16.00994601	     -1.96403553	     39.47911339	     -0.72306999	     -8.79397090	      0.00000000	     67.04569889	     -7.72132970	     -4.57434305	     40.90501929	      4.21578044	      0.30305473	      0.00000000	    -26.79878440	     -1.07581446	     -2.25410367	     78.50685036	    -10.41315654	     21.61743103	     91.03592483	     84.51435496	     80.41060468	     -4.27709543	     25.79413725	     83.47819696	     63.55943973
      7.25000000	    -32.52194363	      2.27738294	      4.09317572	      0.81597210	      0.94223716	     -0.29954210	     69.36507519	    -15.63834101	     -1.51637382	     42.50563617	      0.12200899	     -8.93995231	      0.00000000	     69.45031947	     -8.44345300	     -4.82949422	     43.56018154	      4.95444353	      0.72956662	      0.00000000	    -28.14956395	     -0.82092013	     -1.69533053	     80.81479652	    -10.08658590	     20.96582148	     91.90849578	     84.68808145	     83.05936953	     -3.92696212	     25.66342118	     82.68473870	     63.57788551
      7.26666670	    -32.79229110	      2.14291805	      4.13004229	      0.81702993	      0.93014924	     -0.30120275	     71.72820993	    -15.90900854	     -1.94693238	     45.49430846	      0.66629316	     -9.72023450	      0.00000000	     70.94154734	     -8.62086941	     -4.79559506	     45.40804818	      5.50174952	      0.71444998	      0.00000000	    -29.85145383	     -0.65052857	     -1.52397021	     82.89821574	    -10.01052666	     20.32274898	     91.99231374	     84.73620768	     85.07787482	     -3.43837495	     25.34310920	     82.68752935	     63.58986606
      7.28333330	    -32.79154794	      2.04359517	      4.31979696	      0.81258455	      0.91445655	     -0.30452195	     74.14528279	    -16.28714117	     -1.78133566	     49.06074434	      1.61560285	    -10.49135973	      0.00000000	     72.77586374	     -8.74348168	     -4.88281599	     48.12411024	      6.73084558	      0.51443836	      0.00000000	    -31.64025977	     -0.31159710	     -1.47303457	     85.17931576	    -10.07673298	     19.72487771	     92.27133378	     84.79698270	     87.21024756	     -2.96621316	     25.13589495	     82.95101726	     63.63469324
      7.30000000	    -32.57994966	      2.13237963	      4.66253465	      0.81403338	      0.89613313	     -0.30835915	     76.23811854	    -17.12616582	     -1.05657454	     52.64760243	      3.18074736	     -9.88971775	      0.00000000	     74.54040974	     -8.82986472	     -5.18363709	     51.39379010	      8.64880039	      1.55275463	      0.00000000	    -33.60064266	     -0.07984643	     -1.47409951	     87.36301829	    -11.30638669	     19.99259435	     93.40625806	     85.20714396	     89.38853478	     -2.85590080	     25.71468096	     83.63249571	     63.91013942
      7.31666670	    -32.46303562	      2.12662376	      4.93023447	      0.80469643	      0.87964071	     -0.30856770	     78.45716418	    -17.64672128	      0.09638285	     56.08919876	      5.68131187	     -8.55824048	      0.00000000	     76.95359350	     -8.97190460	     -5.02596348	     55.16860473	     10.17248028	      1.60810804	      0.00000000	    -35.14139954	      0.19509063	     -1.31459974	     89.90000962	    -12.36084919	     20.35226047	     94.05767374	     85.59512305	     91.53357147	     -2.52981294	     26.38621374	     84.30870102	     64.29610697
      7.33333330	    -32.38005374	      2.34925897	      4.79046511	      0.80361802	      0.85911535	     -0.31092992	     81.39752131	    -18.00681556	      0.90077465	     60.10570046	      7.04321681	     -7.75829807	      0.00000000	     79.48391375	     -9.17686379	     -4.73518006	     59.08295938	     11.67500695	      1.55754641	      0.00000000	    -36.31264373	      0.10095692	     -1.32742572	     92.07540445	    -12.99006306	     20.91138454	     93.95335787	     85.95444757	     93.66852108	     -2.63863618	     26.67642425	     84.27577244	     64.63988809
      7.35000000	    -32.76505474	      2.21101881	      4.85288371	      0.79619436	      0.84505739	     -0.30310889	     83.79060829	    -17.73158966	      2.29780613	     63.18600427	      9.06385230	     -7.00411994	      0.00000000	     82.51583906	     -9.68080815	     -4.25689627	     62.67876747	     12.51437385	      1.17985664	      0.00000000	    -37.15478413	      0.03817136	     -1.46201843	     94.46742680	    -12.50628324	     21.14198257	     94.49759146	     86.14866833	     95.90825810	     -2.97382521	     26.66546629	     84.39554332	     64.90233279
      7.36666670	    -32.89780091	      2.37913684	      4.96171752	      0.79131596	      0.83159513	     -0.30626916	     86.57336534	    -17.80883220	      2.99606996	     66.52285167	      9.65870577	     -6.82621923	      0.00000000	     84.91778946	     -9.57756452	     -3.80300973	     65.58453969	     13.20730895	      1.08767031	      0.00000000	    -38.32080941	      0.00088541	     -1.83914830	     96.55885307	    -12.75395806	     22.60033372	     94.61564889	     86.60094540	     98.03351219	     -3.57302706	     27.17763629	     84.36152239	     65.41332262
      7.38333330	    -33.13520965	      2.28422894	      4.69638171	      0.79052157	      0.81404943	     -0.30564435	     88.59225249	    -17.34514272	      3.96203520	     69.21690092	     11.46541473	     -6.16406680	      0.00000000	     87.36913360	    -10.03905570	     -3.17122560	     68.38565960	     14.00583450	      0.79042988	      0.00000000	    -39.05915061	     -0.07013032	     -2.02666888	     98.46469099	    -12.58093144	     23.04362333	     94.94250496	     86.92413996	     99.76416761	     -4.03128602	     27.24808452	     84.94047336	     65.92480223
      7.40000000	    -33.09815074	      2.28753013	      4.74929743	      0.78726236	      0.79785210	     -0.30477481	     90.21411846	    -17.41788418	      4.81068316	     71.54096770	     13.24109492	     -4.91462732	      0.00000000	     89.69412157	    -10.09570475	     -2.58301499	     71.45547469	     14.60704569	      0.47143345	      0.00000000	    -40.21701434	      0.08661145	     -2.07836096	    100.43302407	    -13.33493705	     23.62754509	     94.83240185	     87.29846097	    101.18456274	     -4.04857641	     27.53774551	     85.40084820	     66.50855935
      7.41666670	    -32.92876022	      2.11494539	      4.59434773	      0.77981436	      0.78166821	     -0.30329935	     92.30277969	    -17.08977313	      5.59481534	     74.44866297	     14.34353276	     -4.51873432	      0.00000000	     92.09074814	    -10.29016798	     -1.76638579	     74.50479757	     15.05759024	      0.00446712	      0.00000000	    -41.46606297	      0.17900429	     -2.26660998	    102.61210351	    -13.61064111	     24.04729745	     94.42383227	     87.55591963	    103.53633355	     -4.22652372	     27.42456757	     84.92018062	     66.98891298
      7.43333330	    -32.38198344	      2.02070575	      4.42910973	      0.78545882	      0.77835666	     -0.30801294	     94.17917848	    -16.99183460	      5.94573516	     77.67848385	     16.97378232	     -3.39064559	      0.00000000	     93.35607438	    -10.24276668	     -1.03774775	     76.94547582	     15.35746341	     -0.34766100	      0.00000000	    -43.09953176	      0.61255880	     -2.42444387	    104.09047607	    -13.50483007	     24.75192895	     93.20768288	     88.18322356	    104.62942278	     -4.67624328	     27.21120746	     84.57378950	     68.06030888
      7.45000000	    -32.13083288	      1.92336349	      4.29960306	      0.78642397	      0.75926838	     -0.30690189	     96.11523412	    -16.75434658	      6.34422604	     80.85321986	     17.24151842	     -3.53792825	      0.00000000	     94.65686056	    -10.44515579	     -0.49829872	     79.22754401	     16.09064668	     -0.64198348	      0.00000000	    -43.83693672	      0.77491141	     -2.29590162	    104.97902765	    -13.73651592	     24.77774255	     93.15694988	     88.28093028	    105.12435771	     -4.57088192	     27.26973585	     85.07274730	     68.33846745
      7.46666670	    -31.88077446	      1.79284910	      4.32295971	      0.78007632	      0.74423384	     -0.30313911	     97.83683969	    -16.90814736	      6.34362026	     83.38912291	     17.28807432	     -3.64050213	      0.00000000	     96.30565397	    -10.65418622	      0.33771862	     81.76259198	     16.63949649	     -1.39988271	      0.00000000	    -44.72035130	      0.92481971	     -2.28907512	    106.12756510	    -13.62450018	     25.16470408	     93.30239701	     88.39568128	    105.97107482	     -4.87863191	     27.23998317	     85.21950235	     68.61712765
      7.48333330	    -30.88681149	      1.49013577	      4.10911070	      0.77208907	      0.73306107	     -0.30421880	     99.20899485	    -16.71610118	      6.36821607	     86.01783966	     18.88499341	     -3.63592630	      0.00000000	     97.31366146	    -10.87319580	      1.34739957	     84.11167995	     17.13410606	     -1.54984793	      0.00000000	    -45.95232756	      1.37273998	     -1.97980857	    107.40046294	    -13.49420327	     26.15074664	     92.09722742	     88.55742813	    107.04258697	     -5.20173395	     27.39317196	     84.76261292	     69.14999234
